{"title":"All.Star.Superman.2011.DvDRip.x264.Feel-Free","uid":6191091,"size":914131686,"categoryP":"video","categoryS":"movies","magnet":"?xt=urn:btih:bc3b987d9751175c6055198691bd2495a70a28ab&amp;dn=All.Star.Superman.2011.DvDRip.x264.Feel-Free&amp;tr=udp%3A%2F%2Ftracker.openbittorrent.com%3A80&amp;tr=udp%3A%2F%2Fopen.demonii.com%3A1337&amp;tr=udp%3A%2F%2Ftracker.coppersurfer.tk%3A6969&amp;tr=udp%3A%2F%2Fexodus.desync.com%3A6969","seeders":0,"leechers":0,"uploader":"hiest","files":11,"time":1298289086,"description":"Genre:Animation \nLanguage:English\nIMDb:http://www.imdb.com/title/tt1699114/\nSource:DVD\nSubtitles:Romana\n\n\nFormat : MPEG-4\nFormat profile : Base Media\nCodec ID : isom\nFile size : 870 MiB\nDuration : 1h 16mn\nOverall bit rate : 1 588 Kbps\nMovie name : All.Star.Superman.2011.DvDRip.x264.Feel-Free\n\n\nVideo\nFormat settings, CABAC : Yes\nFormat settings, ReFrames : 4 frames\nFormat settings, GOP : M=4, N=32\nCodec ID : avc1\nCodec ID/Info : Advanced Video Coding\nDuration : 1h 16mn\nBit rate mode : Variable\nBit rate : 1 252 Kbps\nWidth : 720 pixels\nHeight : 384 pixels\nDisplay aspect ratio : 1.875\nFrame rate mode : Constant\nFrame rate : 23.976 fps\nColor space : YUV\nChroma subsampling : 4:2:0\nBit depth : 8 bits\nScan type : Progressive\nBits/(Pixel*Frame) : 0.189\nStream size : 689 MiB (79%)\nWriting library : x264\n\nAudio\nID : 2\nFormat : AAC\nFormat/Info : Advanced Audio Codec\nFormat version : Version 4\nFormat profile : LC\nCodec ID : 40\nDuration : 1h 16mn\nBit rate mode : Variable\nBit rate : 324 Kbps\nChannel(s) : 5 channels\nChannel positions : Front: L C R, Side: L R\nSampling rate : 48.0 KHz\nStream size : 178 MiB (20%)","torrent":{"xt":"urn:btih:bc3b987d9751175c6055198691bd2495a70a28ab","amp;dn":"All.Star.Superman.2011.DvDRip.x264.Feel-Free","amp;tr":["udp%3A%2F%2Ftracker.openbittorrent.com%3A80","udp%3A%2F%2Fopen.demonii.com%3A1337","udp%3A%2F%2Ftracker.coppersurfer.tk%3A6969","udp%3A%2F%2Fexodus.desync.com%3A6969"],"infoHash":"bc3b987d9751175c6055198691bd2495a70a28ab","infoHashBuffer":{"type":"Buffer","data":[188,59,152,125,151,81,23,92,96,85,25,134,145,189,36,149,167,10,40,171]},"announce":[],"urlList":[]}}